<mxfile host="app.diagrams.net" modified="2021-02-09T12:13:32.421Z" agent="5.0 (X11; Linux x86_64) AppleWebKit/537.36 (KHTML, like Gecko) Chrome/87.0.4280.141 Safari/537.36" etag="1PH8MJXtUsItmxwqnEun" version="14.3.0" type="github">
  <diagram id="R2lEEEUBdFMjLlhIrx00" name="Page-1">
    <mxGraphModel dx="1185" dy="672" grid="1" gridSize="10" guides="1" tooltips="1" connect="1" arrows="1" fold="1" page="1" pageScale="1" pageWidth="850" pageHeight="1100" math="0" shadow="0" extFonts="Permanent Marker^https://fonts.googleapis.com/css?family=Permanent+Marker">
      <root>
        <mxCell id="0" />
        <mxCell id="1" parent="0" />
        <mxCell id="LgoFQunIn0iN0EQQ3ntF-14" value="" style="rhombus;whiteSpace=wrap;html=1;" vertex="1" parent="1">
          <mxGeometry x="1002.5" y="400" width="75" height="75" as="geometry" />
        </mxCell>
        <mxCell id="LgoFQunIn0iN0EQQ3ntF-10" value="" style="rhombus;whiteSpace=wrap;html=1;" vertex="1" parent="1">
          <mxGeometry x="420" y="370" width="60" height="60" as="geometry" />
        </mxCell>
        <mxCell id="Y-o8OTaq_7tzzy2GkSMv-12" value="1" style="orthogonalLoop=1;jettySize=auto;html=1;rounded=0;endArrow=none;endFill=0;" parent="1" source="Y-o8OTaq_7tzzy2GkSMv-2" target="Y-o8OTaq_7tzzy2GkSMv-11" edge="1">
          <mxGeometry relative="1" as="geometry" />
        </mxCell>
        <mxCell id="Y-o8OTaq_7tzzy2GkSMv-22" style="edgeStyle=none;rounded=0;orthogonalLoop=1;jettySize=auto;html=1;endArrow=none;endFill=0;strokeColor=#000000;" parent="1" source="Y-o8OTaq_7tzzy2GkSMv-2" target="Y-o8OTaq_7tzzy2GkSMv-20" edge="1">
          <mxGeometry relative="1" as="geometry">
            <mxPoint x="220" y="320" as="targetPoint" />
          </mxGeometry>
        </mxCell>
        <mxCell id="Y-o8OTaq_7tzzy2GkSMv-29" style="edgeStyle=none;rounded=0;orthogonalLoop=1;jettySize=auto;html=1;exitX=0.25;exitY=1;exitDx=0;exitDy=0;entryX=0.742;entryY=0.063;entryDx=0;entryDy=0;entryPerimeter=0;endArrow=none;endFill=0;strokeColor=#000000;" parent="1" source="Y-o8OTaq_7tzzy2GkSMv-2" target="Y-o8OTaq_7tzzy2GkSMv-26" edge="1">
          <mxGeometry relative="1" as="geometry" />
        </mxCell>
        <mxCell id="Y-o8OTaq_7tzzy2GkSMv-43" value="1" style="edgeStyle=none;rounded=0;orthogonalLoop=1;jettySize=auto;html=1;endArrow=none;endFill=0;strokeColor=#000000;shape=link;" parent="1" source="Y-o8OTaq_7tzzy2GkSMv-2" target="Y-o8OTaq_7tzzy2GkSMv-42" edge="1">
          <mxGeometry relative="1" as="geometry" />
        </mxCell>
        <mxCell id="Y-o8OTaq_7tzzy2GkSMv-2" value="Person" style="rounded=0;whiteSpace=wrap;html=1;" parent="1" vertex="1">
          <mxGeometry x="230" y="370" width="120" height="60" as="geometry" />
        </mxCell>
        <mxCell id="Y-o8OTaq_7tzzy2GkSMv-13" value="1" style="edgeStyle=none;rounded=0;orthogonalLoop=1;jettySize=auto;html=1;endArrow=none;endFill=0;strokeColor=#000000;shape=link;" parent="1" source="Y-o8OTaq_7tzzy2GkSMv-11" target="Y-o8OTaq_7tzzy2GkSMv-47" edge="1">
          <mxGeometry relative="1" as="geometry">
            <mxPoint x="600" y="275" as="targetPoint" />
            <mxPoint x="500" y="350" as="sourcePoint" />
          </mxGeometry>
        </mxCell>
        <mxCell id="Y-o8OTaq_7tzzy2GkSMv-14" value="1" style="edgeStyle=none;rounded=0;orthogonalLoop=1;jettySize=auto;html=1;endArrow=none;endFill=0;strokeColor=#000000;shape=link;" parent="1" source="Y-o8OTaq_7tzzy2GkSMv-11" target="Y-o8OTaq_7tzzy2GkSMv-50" edge="1">
          <mxGeometry relative="1" as="geometry">
            <mxPoint x="660" y="360" as="targetPoint" />
          </mxGeometry>
        </mxCell>
        <mxCell id="Y-o8OTaq_7tzzy2GkSMv-16" value="1" style="edgeStyle=none;rounded=0;orthogonalLoop=1;jettySize=auto;html=1;endArrow=none;endFill=0;strokeColor=#000000;shape=link;" parent="1" source="Y-o8OTaq_7tzzy2GkSMv-11" target="Y-o8OTaq_7tzzy2GkSMv-51" edge="1">
          <mxGeometry relative="1" as="geometry">
            <mxPoint x="640" y="570" as="targetPoint" />
          </mxGeometry>
        </mxCell>
        <mxCell id="Y-o8OTaq_7tzzy2GkSMv-17" value="1" style="edgeStyle=none;rounded=0;orthogonalLoop=1;jettySize=auto;html=1;endArrow=none;endFill=0;strokeColor=#000000;shape=link;" parent="1" source="Y-o8OTaq_7tzzy2GkSMv-11" target="Y-o8OTaq_7tzzy2GkSMv-48" edge="1">
          <mxGeometry relative="1" as="geometry">
            <mxPoint x="560" y="390" as="sourcePoint" />
            <mxPoint x="640" y="445" as="targetPoint" />
          </mxGeometry>
        </mxCell>
        <mxCell id="Y-o8OTaq_7tzzy2GkSMv-11" value="Är" style="rhombus;whiteSpace=wrap;html=1;strokeColor=#000000;" parent="1" vertex="1">
          <mxGeometry x="425" y="375" width="50" height="50" as="geometry" />
        </mxCell>
        <mxCell id="Y-o8OTaq_7tzzy2GkSMv-38" style="edgeStyle=none;rounded=0;orthogonalLoop=1;jettySize=auto;html=1;endArrow=none;endFill=0;strokeColor=#000000;" parent="1" source="Y-o8OTaq_7tzzy2GkSMv-130" target="Y-o8OTaq_7tzzy2GkSMv-34" edge="1">
          <mxGeometry relative="1" as="geometry">
            <mxPoint x="320" y="567.3333239452143" as="sourcePoint" />
          </mxGeometry>
        </mxCell>
        <mxCell id="Y-o8OTaq_7tzzy2GkSMv-39" style="edgeStyle=none;rounded=0;orthogonalLoop=1;jettySize=auto;html=1;endArrow=none;endFill=0;strokeColor=#000000;exitX=0.5;exitY=1;exitDx=0;exitDy=0;" parent="1" source="Y-o8OTaq_7tzzy2GkSMv-130" target="Y-o8OTaq_7tzzy2GkSMv-33" edge="1">
          <mxGeometry relative="1" as="geometry">
            <mxPoint x="344.1710477103868" y="570" as="sourcePoint" />
            <mxPoint x="300" y="607" as="targetPoint" />
          </mxGeometry>
        </mxCell>
        <mxCell id="Y-o8OTaq_7tzzy2GkSMv-40" style="edgeStyle=none;rounded=0;orthogonalLoop=1;jettySize=auto;html=1;endArrow=none;endFill=0;strokeColor=#000000;" parent="1" source="Y-o8OTaq_7tzzy2GkSMv-130" target="Y-o8OTaq_7tzzy2GkSMv-35" edge="1">
          <mxGeometry relative="1" as="geometry">
            <mxPoint x="358.04121184647784" y="570" as="sourcePoint" />
          </mxGeometry>
        </mxCell>
        <mxCell id="Y-o8OTaq_7tzzy2GkSMv-41" style="edgeStyle=none;rounded=0;orthogonalLoop=1;jettySize=auto;html=1;endArrow=none;endFill=0;strokeColor=#000000;" parent="1" source="Y-o8OTaq_7tzzy2GkSMv-130" target="Y-o8OTaq_7tzzy2GkSMv-36" edge="1">
          <mxGeometry relative="1" as="geometry">
            <mxPoint x="381.96319056646894" y="570" as="sourcePoint" />
          </mxGeometry>
        </mxCell>
        <mxCell id="Y-o8OTaq_7tzzy2GkSMv-23" style="edgeStyle=none;rounded=0;orthogonalLoop=1;jettySize=auto;html=1;endArrow=none;endFill=0;strokeColor=#000000;" parent="1" source="Y-o8OTaq_7tzzy2GkSMv-20" target="Y-o8OTaq_7tzzy2GkSMv-21" edge="1">
          <mxGeometry relative="1" as="geometry">
            <mxPoint x="122" y="300" as="sourcePoint" />
            <mxPoint x="130" y="290" as="targetPoint" />
          </mxGeometry>
        </mxCell>
        <mxCell id="Y-o8OTaq_7tzzy2GkSMv-25" style="edgeStyle=none;rounded=0;orthogonalLoop=1;jettySize=auto;html=1;endArrow=none;endFill=0;strokeColor=#000000;" parent="1" source="Y-o8OTaq_7tzzy2GkSMv-20" target="Y-o8OTaq_7tzzy2GkSMv-24" edge="1">
          <mxGeometry relative="1" as="geometry">
            <mxPoint x="129" y="440" as="sourcePoint" />
            <mxPoint x="129" y="440" as="targetPoint" />
          </mxGeometry>
        </mxCell>
        <mxCell id="Y-o8OTaq_7tzzy2GkSMv-20" value="Namn" style="ellipse;whiteSpace=wrap;html=1;strokeColor=#000000;" parent="1" vertex="1">
          <mxGeometry x="130" y="350" width="60" height="40" as="geometry" />
        </mxCell>
        <mxCell id="Y-o8OTaq_7tzzy2GkSMv-21" value="&lt;u&gt;Förnamn&lt;/u&gt;" style="ellipse;whiteSpace=wrap;html=1;strokeColor=#000000;" parent="1" vertex="1">
          <mxGeometry x="30" y="300" width="70" height="50" as="geometry" />
        </mxCell>
        <mxCell id="Y-o8OTaq_7tzzy2GkSMv-24" value="Efternamn" style="ellipse;whiteSpace=wrap;html=1;strokeColor=#000000;" parent="1" vertex="1">
          <mxGeometry x="30" y="390" width="70" height="50" as="geometry" />
        </mxCell>
        <mxCell id="Y-o8OTaq_7tzzy2GkSMv-30" style="edgeStyle=none;rounded=0;orthogonalLoop=1;jettySize=auto;html=1;exitX=0;exitY=1;exitDx=0;exitDy=0;entryX=0.942;entryY=0.2;entryDx=0;entryDy=0;entryPerimeter=0;endArrow=none;endFill=0;strokeColor=#000000;" parent="1" source="Y-o8OTaq_7tzzy2GkSMv-26" target="Y-o8OTaq_7tzzy2GkSMv-27" edge="1">
          <mxGeometry relative="1" as="geometry" />
        </mxCell>
        <mxCell id="Y-o8OTaq_7tzzy2GkSMv-31" style="edgeStyle=none;rounded=0;orthogonalLoop=1;jettySize=auto;html=1;exitX=0.5;exitY=1;exitDx=0;exitDy=0;entryX=0.5;entryY=0;entryDx=0;entryDy=0;endArrow=none;endFill=0;strokeColor=#000000;" parent="1" source="Y-o8OTaq_7tzzy2GkSMv-26" target="Y-o8OTaq_7tzzy2GkSMv-28" edge="1">
          <mxGeometry relative="1" as="geometry" />
        </mxCell>
        <mxCell id="Y-o8OTaq_7tzzy2GkSMv-26" value="Telefonnummer" style="ellipse;whiteSpace=wrap;html=1;strokeColor=#000000;" parent="1" vertex="1">
          <mxGeometry x="130" y="460" width="100" height="50" as="geometry" />
        </mxCell>
        <mxCell id="Y-o8OTaq_7tzzy2GkSMv-27" value="&lt;u&gt;Privat&lt;/u&gt;" style="ellipse;whiteSpace=wrap;html=1;strokeColor=#000000;" parent="1" vertex="1">
          <mxGeometry x="50" y="505" width="60" height="30" as="geometry" />
        </mxCell>
        <mxCell id="Y-o8OTaq_7tzzy2GkSMv-28" value="Public" style="ellipse;whiteSpace=wrap;html=1;strokeColor=#000000;" parent="1" vertex="1">
          <mxGeometry x="170" y="535" width="60" height="30" as="geometry" />
        </mxCell>
        <mxCell id="Y-o8OTaq_7tzzy2GkSMv-33" value="Land" style="ellipse;whiteSpace=wrap;html=1;strokeColor=#000000;" parent="1" vertex="1">
          <mxGeometry x="240" y="612.5" width="70" height="55" as="geometry" />
        </mxCell>
        <mxCell id="Y-o8OTaq_7tzzy2GkSMv-34" value="Gata" style="ellipse;whiteSpace=wrap;html=1;strokeColor=#000000;" parent="1" vertex="1">
          <mxGeometry x="240" y="543" width="70" height="50" as="geometry" />
        </mxCell>
        <mxCell id="Y-o8OTaq_7tzzy2GkSMv-35" value="postnummer" style="ellipse;whiteSpace=wrap;html=1;strokeColor=#000000;" parent="1" vertex="1">
          <mxGeometry x="330" y="605" width="80" height="50" as="geometry" />
        </mxCell>
        <mxCell id="Y-o8OTaq_7tzzy2GkSMv-36" value="postort" style="ellipse;whiteSpace=wrap;html=1;strokeColor=#000000;" parent="1" vertex="1">
          <mxGeometry x="410" y="580" width="70" height="50" as="geometry" />
        </mxCell>
        <mxCell id="Y-o8OTaq_7tzzy2GkSMv-44" value="P" style="edgeStyle=none;rounded=0;orthogonalLoop=1;jettySize=auto;html=1;endArrow=none;endFill=0;strokeColor=#000000;" parent="1" source="Y-o8OTaq_7tzzy2GkSMv-42" target="Y-o8OTaq_7tzzy2GkSMv-130" edge="1">
          <mxGeometry relative="1" as="geometry">
            <mxPoint x="355" y="540" as="targetPoint" />
          </mxGeometry>
        </mxCell>
        <mxCell id="Y-o8OTaq_7tzzy2GkSMv-42" value="Bor på" style="rhombus;whiteSpace=wrap;html=1;strokeColor=#000000;" parent="1" vertex="1">
          <mxGeometry x="300" y="455" width="60" height="60" as="geometry" />
        </mxCell>
        <mxCell id="Y-o8OTaq_7tzzy2GkSMv-46" style="edgeStyle=none;rounded=0;orthogonalLoop=1;jettySize=auto;html=1;exitX=1;exitY=0;exitDx=0;exitDy=0;endArrow=none;endFill=0;strokeColor=#000000;" parent="1" edge="1">
          <mxGeometry relative="1" as="geometry">
            <mxPoint x="930" y="290" as="sourcePoint" />
            <mxPoint x="930" y="290" as="targetPoint" />
          </mxGeometry>
        </mxCell>
        <mxCell id="Y-o8OTaq_7tzzy2GkSMv-76" value="U" style="edgeStyle=none;rounded=0;orthogonalLoop=1;jettySize=auto;html=1;endArrow=none;endFill=0;strokeColor=#000000;" parent="1" source="Y-o8OTaq_7tzzy2GkSMv-47" target="Y-o8OTaq_7tzzy2GkSMv-73" edge="1">
          <mxGeometry relative="1" as="geometry" />
        </mxCell>
        <mxCell id="Y-o8OTaq_7tzzy2GkSMv-47" value="Ägare" style="shape=ext;double=1;rounded=0;whiteSpace=wrap;html=1;strokeColor=#000000;" parent="1" vertex="1">
          <mxGeometry x="510" y="600" width="60" height="40" as="geometry" />
        </mxCell>
        <mxCell id="Y-o8OTaq_7tzzy2GkSMv-48" value="Tränare" style="shape=ext;double=1;rounded=0;whiteSpace=wrap;html=1;strokeColor=#000000;" parent="1" vertex="1">
          <mxGeometry x="660" y="265" width="60" height="40" as="geometry" />
        </mxCell>
        <mxCell id="Y-o8OTaq_7tzzy2GkSMv-50" value="Agent" style="shape=ext;double=1;rounded=0;whiteSpace=wrap;html=1;strokeColor=#000000;" parent="1" vertex="1">
          <mxGeometry x="505" y="470" width="60" height="40" as="geometry" />
        </mxCell>
        <mxCell id="Y-o8OTaq_7tzzy2GkSMv-79" value="O" style="edgeStyle=none;rounded=0;orthogonalLoop=1;jettySize=auto;html=1;endArrow=none;endFill=0;strokeColor=#000000;" parent="1" source="Y-o8OTaq_7tzzy2GkSMv-51" target="Y-o8OTaq_7tzzy2GkSMv-78" edge="1">
          <mxGeometry relative="1" as="geometry" />
        </mxCell>
        <mxCell id="Y-o8OTaq_7tzzy2GkSMv-51" value="Spelare" style="shape=ext;double=1;rounded=0;whiteSpace=wrap;html=1;strokeColor=#000000;" parent="1" vertex="1">
          <mxGeometry x="665" y="320" width="70" height="40" as="geometry" />
        </mxCell>
        <mxCell id="Y-o8OTaq_7tzzy2GkSMv-66" style="edgeStyle=none;rounded=0;orthogonalLoop=1;jettySize=auto;html=1;endArrow=none;endFill=0;strokeColor=#000000;" parent="1" source="Y-o8OTaq_7tzzy2GkSMv-132" target="Y-o8OTaq_7tzzy2GkSMv-55" edge="1">
          <mxGeometry relative="1" as="geometry">
            <mxPoint x="931.8612217421719" y="260" as="sourcePoint" />
          </mxGeometry>
        </mxCell>
        <mxCell id="Y-o8OTaq_7tzzy2GkSMv-67" style="edgeStyle=none;rounded=0;orthogonalLoop=1;jettySize=auto;html=1;endArrow=none;endFill=0;strokeColor=#000000;" parent="1" source="Y-o8OTaq_7tzzy2GkSMv-132" target="Y-o8OTaq_7tzzy2GkSMv-56" edge="1">
          <mxGeometry relative="1" as="geometry">
            <mxPoint x="960.8895899299289" y="260" as="sourcePoint" />
          </mxGeometry>
        </mxCell>
        <mxCell id="Y-o8OTaq_7tzzy2GkSMv-62" style="edgeStyle=none;rounded=0;orthogonalLoop=1;jettySize=auto;html=1;endArrow=none;endFill=0;strokeColor=#000000;" parent="1" source="Y-o8OTaq_7tzzy2GkSMv-53" target="Y-o8OTaq_7tzzy2GkSMv-60" edge="1">
          <mxGeometry relative="1" as="geometry" />
        </mxCell>
        <mxCell id="Y-o8OTaq_7tzzy2GkSMv-63" style="edgeStyle=none;rounded=0;orthogonalLoop=1;jettySize=auto;html=1;endArrow=none;endFill=0;strokeColor=#000000;" parent="1" source="Y-o8OTaq_7tzzy2GkSMv-53" target="Y-o8OTaq_7tzzy2GkSMv-59" edge="1">
          <mxGeometry relative="1" as="geometry" />
        </mxCell>
        <mxCell id="Y-o8OTaq_7tzzy2GkSMv-64" style="edgeStyle=none;rounded=0;orthogonalLoop=1;jettySize=auto;html=1;exitX=0.75;exitY=0;exitDx=0;exitDy=0;endArrow=none;endFill=0;strokeColor=#000000;" parent="1" source="Y-o8OTaq_7tzzy2GkSMv-53" target="Y-o8OTaq_7tzzy2GkSMv-58" edge="1">
          <mxGeometry relative="1" as="geometry" />
        </mxCell>
        <mxCell id="Y-o8OTaq_7tzzy2GkSMv-77" value="V" style="edgeStyle=none;rounded=0;orthogonalLoop=1;jettySize=auto;html=1;endArrow=none;endFill=0;strokeColor=#000000;" parent="1" source="Y-o8OTaq_7tzzy2GkSMv-53" target="Y-o8OTaq_7tzzy2GkSMv-73" edge="1">
          <mxGeometry relative="1" as="geometry" />
        </mxCell>
        <mxCell id="Y-o8OTaq_7tzzy2GkSMv-53" value="Klubb" style="rounded=0;whiteSpace=wrap;html=1;strokeColor=#000000;" parent="1" vertex="1">
          <mxGeometry x="877.5" y="546.25" width="55" height="30" as="geometry" />
        </mxCell>
        <mxCell id="Y-o8OTaq_7tzzy2GkSMv-55" value="Lagnamn" style="ellipse;whiteSpace=wrap;html=1;strokeColor=#000000;" parent="1" vertex="1">
          <mxGeometry x="840" y="180" width="70" height="30" as="geometry" />
        </mxCell>
        <mxCell id="Y-o8OTaq_7tzzy2GkSMv-56" value="Spelstil" style="ellipse;whiteSpace=wrap;html=1;strokeColor=#000000;" parent="1" vertex="1">
          <mxGeometry x="1005" y="225" width="70" height="40" as="geometry" />
        </mxCell>
        <mxCell id="Y-o8OTaq_7tzzy2GkSMv-58" value="&lt;u&gt;Namn&lt;/u&gt;" style="ellipse;whiteSpace=wrap;html=1;strokeColor=#000000;" parent="1" vertex="1">
          <mxGeometry x="825" y="605" width="60" height="30" as="geometry" />
        </mxCell>
        <mxCell id="Y-o8OTaq_7tzzy2GkSMv-59" value="Startår" style="ellipse;whiteSpace=wrap;html=1;strokeColor=#000000;" parent="1" vertex="1">
          <mxGeometry x="910" y="600" width="50" height="30" as="geometry" />
        </mxCell>
        <mxCell id="Y-o8OTaq_7tzzy2GkSMv-60" value="Hemland" style="ellipse;whiteSpace=wrap;html=1;strokeColor=#000000;" parent="1" vertex="1">
          <mxGeometry x="980" y="563" width="70" height="30" as="geometry" />
        </mxCell>
        <mxCell id="Y-o8OTaq_7tzzy2GkSMv-69" style="edgeStyle=none;rounded=0;orthogonalLoop=1;jettySize=auto;html=1;endArrow=none;endFill=0;strokeColor=#000000;" parent="1" source="Y-o8OTaq_7tzzy2GkSMv-68" target="Y-o8OTaq_7tzzy2GkSMv-132" edge="1">
          <mxGeometry relative="1" as="geometry">
            <mxPoint x="946.7647058823529" y="260" as="targetPoint" />
          </mxGeometry>
        </mxCell>
        <mxCell id="Y-o8OTaq_7tzzy2GkSMv-68" value="Division" style="ellipse;whiteSpace=wrap;html=1;strokeColor=#000000;" parent="1" vertex="1">
          <mxGeometry x="935" y="180" width="60" height="40" as="geometry" />
        </mxCell>
        <mxCell id="Y-o8OTaq_7tzzy2GkSMv-72" style="edgeStyle=none;rounded=0;orthogonalLoop=1;jettySize=auto;html=1;endArrow=none;endFill=0;strokeColor=#000000;" parent="1" source="Y-o8OTaq_7tzzy2GkSMv-71" target="Y-o8OTaq_7tzzy2GkSMv-132" edge="1">
          <mxGeometry relative="1" as="geometry">
            <mxPoint x="980" y="274.3269230769232" as="targetPoint" />
          </mxGeometry>
        </mxCell>
        <mxCell id="Y-o8OTaq_7tzzy2GkSMv-71" value="Antal spelare" style="ellipse;whiteSpace=wrap;html=1;strokeColor=#000000;dashed=1;" parent="1" vertex="1">
          <mxGeometry x="1005" y="292.5" width="70" height="50" as="geometry" />
        </mxCell>
        <mxCell id="Y-o8OTaq_7tzzy2GkSMv-73" value="Äger" style="rhombus;whiteSpace=wrap;html=1;strokeColor=#000000;" parent="1" vertex="1">
          <mxGeometry x="702.5" y="620" width="50" height="50" as="geometry" />
        </mxCell>
        <mxCell id="Y-o8OTaq_7tzzy2GkSMv-75" style="edgeStyle=none;rounded=0;orthogonalLoop=1;jettySize=auto;html=1;endArrow=none;endFill=0;strokeColor=#000000;" parent="1" source="Y-o8OTaq_7tzzy2GkSMv-74" target="Y-o8OTaq_7tzzy2GkSMv-73" edge="1">
          <mxGeometry relative="1" as="geometry" />
        </mxCell>
        <mxCell id="Y-o8OTaq_7tzzy2GkSMv-74" value="Ägarandel" style="ellipse;whiteSpace=wrap;html=1;dashed=1;strokeColor=#000000;" parent="1" vertex="1">
          <mxGeometry x="697.5" y="690" width="65" height="40" as="geometry" />
        </mxCell>
        <mxCell id="Y-o8OTaq_7tzzy2GkSMv-80" value="1" style="edgeStyle=none;rounded=0;orthogonalLoop=1;jettySize=auto;html=1;endArrow=none;endFill=0;strokeColor=#000000;" parent="1" source="Y-o8OTaq_7tzzy2GkSMv-78" target="Y-o8OTaq_7tzzy2GkSMv-50" edge="1">
          <mxGeometry relative="1" as="geometry" />
        </mxCell>
        <mxCell id="Y-o8OTaq_7tzzy2GkSMv-78" value="Assisterar" style="rhombus;whiteSpace=wrap;html=1;strokeColor=#000000;" parent="1" vertex="1">
          <mxGeometry x="490" y="392.5" width="75" height="50" as="geometry" />
        </mxCell>
        <mxCell id="Y-o8OTaq_7tzzy2GkSMv-85" value="Q" style="edgeStyle=none;rounded=0;orthogonalLoop=1;jettySize=auto;html=1;endArrow=none;endFill=0;strokeColor=#000000;" parent="1" source="Y-o8OTaq_7tzzy2GkSMv-81" target="Y-o8OTaq_7tzzy2GkSMv-132" edge="1">
          <mxGeometry relative="1" as="geometry">
            <mxPoint x="910" y="264.8684210526317" as="targetPoint" />
          </mxGeometry>
        </mxCell>
        <mxCell id="Y-o8OTaq_7tzzy2GkSMv-86" value="1" style="edgeStyle=none;rounded=0;orthogonalLoop=1;jettySize=auto;html=1;endArrow=none;endFill=0;strokeColor=#000000;" parent="1" source="Y-o8OTaq_7tzzy2GkSMv-81" target="Y-o8OTaq_7tzzy2GkSMv-48" edge="1">
          <mxGeometry relative="1" as="geometry" />
        </mxCell>
        <mxCell id="Y-o8OTaq_7tzzy2GkSMv-81" value="Tränar" style="rhombus;whiteSpace=wrap;html=1;strokeColor=#000000;" parent="1" vertex="1">
          <mxGeometry x="825" y="225" width="50" height="45" as="geometry" />
        </mxCell>
        <mxCell id="Y-o8OTaq_7tzzy2GkSMv-83" value="T" style="edgeStyle=none;rounded=0;orthogonalLoop=1;jettySize=auto;html=1;endArrow=none;endFill=0;strokeColor=#000000;" parent="1" source="Y-o8OTaq_7tzzy2GkSMv-82" target="Y-o8OTaq_7tzzy2GkSMv-51" edge="1">
          <mxGeometry relative="1" as="geometry" />
        </mxCell>
        <mxCell id="Y-o8OTaq_7tzzy2GkSMv-84" value="1" style="edgeStyle=none;rounded=0;orthogonalLoop=1;jettySize=auto;html=1;endArrow=none;endFill=0;strokeColor=#000000;" parent="1" source="Y-o8OTaq_7tzzy2GkSMv-82" target="Y-o8OTaq_7tzzy2GkSMv-132" edge="1">
          <mxGeometry relative="1" as="geometry">
            <mxPoint x="913.3333333333333" y="290.0000000000001" as="targetPoint" />
          </mxGeometry>
        </mxCell>
        <mxCell id="Y-o8OTaq_7tzzy2GkSMv-82" value="Spelar i" style="rhombus;whiteSpace=wrap;html=1;strokeColor=#000000;" parent="1" vertex="1">
          <mxGeometry x="820" y="297.5" width="60" height="45" as="geometry" />
        </mxCell>
        <mxCell id="Y-o8OTaq_7tzzy2GkSMv-87" value="Sponsor" style="rounded=0;whiteSpace=wrap;html=1;strokeColor=#000000;" parent="1" vertex="1">
          <mxGeometry x="702.5" y="490" width="70" height="30" as="geometry" />
        </mxCell>
        <mxCell id="Y-o8OTaq_7tzzy2GkSMv-89" style="edgeStyle=none;rounded=0;orthogonalLoop=1;jettySize=auto;html=1;endArrow=none;endFill=0;strokeColor=#000000;" parent="1" source="Y-o8OTaq_7tzzy2GkSMv-88" target="Y-o8OTaq_7tzzy2GkSMv-87" edge="1">
          <mxGeometry relative="1" as="geometry" />
        </mxCell>
        <mxCell id="Y-o8OTaq_7tzzy2GkSMv-88" value="&lt;u&gt;Företagskod&lt;/u&gt;" style="ellipse;whiteSpace=wrap;html=1;strokeColor=#000000;" parent="1" vertex="1">
          <mxGeometry x="622.5" y="535" width="80" height="37.5" as="geometry" />
        </mxCell>
        <mxCell id="Y-o8OTaq_7tzzy2GkSMv-90" value="Produkt" style="rounded=0;whiteSpace=wrap;html=1;strokeColor=#000000;" parent="1" vertex="1">
          <mxGeometry x="865" y="462.5" width="70" height="30" as="geometry" />
        </mxCell>
        <mxCell id="Y-o8OTaq_7tzzy2GkSMv-93" style="edgeStyle=none;rounded=0;orthogonalLoop=1;jettySize=auto;html=1;endArrow=none;endFill=0;strokeColor=#000000;" parent="1" source="Y-o8OTaq_7tzzy2GkSMv-91" target="Y-o8OTaq_7tzzy2GkSMv-87" edge="1">
          <mxGeometry relative="1" as="geometry" />
        </mxCell>
        <mxCell id="Y-o8OTaq_7tzzy2GkSMv-91" value="branchtillhörighet" style="ellipse;whiteSpace=wrap;html=1;strokeColor=#000000;" parent="1" vertex="1">
          <mxGeometry x="855" y="342.5" width="110" height="40" as="geometry" />
        </mxCell>
        <mxCell id="Y-o8OTaq_7tzzy2GkSMv-94" style="edgeStyle=none;rounded=0;orthogonalLoop=1;jettySize=auto;html=1;endArrow=none;endFill=0;strokeColor=#000000;" parent="1" source="Y-o8OTaq_7tzzy2GkSMv-92" target="Y-o8OTaq_7tzzy2GkSMv-87" edge="1">
          <mxGeometry relative="1" as="geometry" />
        </mxCell>
        <mxCell id="Y-o8OTaq_7tzzy2GkSMv-92" value="Namn" style="ellipse;whiteSpace=wrap;html=1;strokeColor=#000000;" parent="1" vertex="1">
          <mxGeometry x="800" y="375" width="50" height="20" as="geometry" />
        </mxCell>
        <mxCell id="Y-o8OTaq_7tzzy2GkSMv-96" value="1" style="edgeStyle=none;rounded=0;orthogonalLoop=1;jettySize=auto;html=1;endArrow=none;endFill=0;strokeColor=#000000;" parent="1" source="Y-o8OTaq_7tzzy2GkSMv-95" target="Y-o8OTaq_7tzzy2GkSMv-87" edge="1">
          <mxGeometry relative="1" as="geometry" />
        </mxCell>
        <mxCell id="Y-o8OTaq_7tzzy2GkSMv-97" value="S" style="edgeStyle=none;rounded=0;orthogonalLoop=1;jettySize=auto;html=1;endArrow=none;endFill=0;strokeColor=#000000;" parent="1" source="Y-o8OTaq_7tzzy2GkSMv-95" target="Y-o8OTaq_7tzzy2GkSMv-90" edge="1">
          <mxGeometry relative="1" as="geometry" />
        </mxCell>
        <mxCell id="Y-o8OTaq_7tzzy2GkSMv-95" value="Har" style="rhombus;whiteSpace=wrap;html=1;strokeColor=#000000;" parent="1" vertex="1">
          <mxGeometry x="800" y="480" width="50" height="40" as="geometry" />
        </mxCell>
        <mxCell id="Y-o8OTaq_7tzzy2GkSMv-103" style="edgeStyle=none;rounded=0;orthogonalLoop=1;jettySize=auto;html=1;endArrow=none;endFill=0;strokeColor=#000000;" parent="1" source="Y-o8OTaq_7tzzy2GkSMv-99" target="LgoFQunIn0iN0EQQ3ntF-3" edge="1">
          <mxGeometry relative="1" as="geometry">
            <mxPoint x="605.1999999999998" y="497.5" as="targetPoint" />
          </mxGeometry>
        </mxCell>
        <mxCell id="Y-o8OTaq_7tzzy2GkSMv-99" value="Start datum" style="ellipse;whiteSpace=wrap;html=1;strokeColor=#000000;" parent="1" vertex="1">
          <mxGeometry x="600" y="392.5" width="65" height="40" as="geometry" />
        </mxCell>
        <mxCell id="Y-o8OTaq_7tzzy2GkSMv-102" style="edgeStyle=none;rounded=0;orthogonalLoop=1;jettySize=auto;html=1;endArrow=none;endFill=0;strokeColor=#000000;" parent="1" source="Y-o8OTaq_7tzzy2GkSMv-100" target="LgoFQunIn0iN0EQQ3ntF-3" edge="1">
          <mxGeometry relative="1" as="geometry">
            <mxPoint x="626.7567567567569" y="497.5" as="targetPoint" />
          </mxGeometry>
        </mxCell>
        <mxCell id="Y-o8OTaq_7tzzy2GkSMv-100" value="Slut datum" style="ellipse;whiteSpace=wrap;html=1;strokeColor=#000000;" parent="1" vertex="1">
          <mxGeometry x="580" y="442.5" width="60" height="40" as="geometry" />
        </mxCell>
        <mxCell id="Y-o8OTaq_7tzzy2GkSMv-104" style="edgeStyle=none;rounded=0;orthogonalLoop=1;jettySize=auto;html=1;endArrow=none;endFill=0;strokeColor=#000000;" parent="1" source="Y-o8OTaq_7tzzy2GkSMv-101" target="LgoFQunIn0iN0EQQ3ntF-3" edge="1">
          <mxGeometry relative="1" as="geometry">
            <mxPoint x="662.5925925925924" y="497.5" as="targetPoint" />
          </mxGeometry>
        </mxCell>
        <mxCell id="Y-o8OTaq_7tzzy2GkSMv-101" value="Antal år" style="ellipse;whiteSpace=wrap;html=1;strokeColor=#000000;dashed=1;" parent="1" vertex="1">
          <mxGeometry x="730" y="362.5" width="60" height="30" as="geometry" />
        </mxCell>
        <mxCell id="Y-o8OTaq_7tzzy2GkSMv-109" value="R" style="edgeStyle=none;rounded=0;orthogonalLoop=1;jettySize=auto;html=1;endArrow=none;endFill=0;strokeColor=#000000;" parent="1" source="Y-o8OTaq_7tzzy2GkSMv-108" target="Y-o8OTaq_7tzzy2GkSMv-132" edge="1">
          <mxGeometry relative="1" as="geometry">
            <mxPoint x="954.8076923076922" y="290.0000000000001" as="targetPoint" />
          </mxGeometry>
        </mxCell>
        <mxCell id="Y-o8OTaq_7tzzy2GkSMv-110" value="1" style="edgeStyle=none;rounded=0;orthogonalLoop=1;jettySize=auto;html=1;endArrow=none;endFill=0;strokeColor=#000000;" parent="1" source="Y-o8OTaq_7tzzy2GkSMv-108" target="Y-o8OTaq_7tzzy2GkSMv-53" edge="1">
          <mxGeometry relative="1" as="geometry" />
        </mxCell>
        <mxCell id="Y-o8OTaq_7tzzy2GkSMv-108" value="Del av" style="rhombus;whiteSpace=wrap;html=1;strokeColor=#000000;" parent="1" vertex="1">
          <mxGeometry x="1010" y="412.5" width="60" height="50" as="geometry" />
        </mxCell>
        <mxCell id="Y-o8OTaq_7tzzy2GkSMv-123" style="edgeStyle=none;rounded=0;orthogonalLoop=1;jettySize=auto;html=1;endArrow=none;endFill=0;strokeColor=#000000;" parent="1" source="Y-o8OTaq_7tzzy2GkSMv-122" target="Y-o8OTaq_7tzzy2GkSMv-90" edge="1">
          <mxGeometry relative="1" as="geometry" />
        </mxCell>
        <mxCell id="Y-o8OTaq_7tzzy2GkSMv-122" value="&lt;u&gt;Produkt id&lt;/u&gt;" style="ellipse;whiteSpace=wrap;html=1;strokeColor=#000000;" parent="1" vertex="1">
          <mxGeometry x="860" y="406.25" width="60" height="40" as="geometry" />
        </mxCell>
        <mxCell id="Y-o8OTaq_7tzzy2GkSMv-125" style="edgeStyle=none;rounded=0;orthogonalLoop=1;jettySize=auto;html=1;endArrow=none;endFill=0;strokeColor=#000000;" parent="1" source="Y-o8OTaq_7tzzy2GkSMv-124" target="Y-o8OTaq_7tzzy2GkSMv-90" edge="1">
          <mxGeometry relative="1" as="geometry" />
        </mxCell>
        <mxCell id="Y-o8OTaq_7tzzy2GkSMv-124" value="Namn" style="ellipse;whiteSpace=wrap;html=1;strokeColor=#000000;" parent="1" vertex="1">
          <mxGeometry x="935" y="425" width="52.5" height="32.5" as="geometry" />
        </mxCell>
        <mxCell id="Y-o8OTaq_7tzzy2GkSMv-128" style="edgeStyle=none;rounded=0;orthogonalLoop=1;jettySize=auto;html=1;endArrow=none;endFill=0;strokeColor=#000000;" parent="1" source="Y-o8OTaq_7tzzy2GkSMv-127" target="LgoFQunIn0iN0EQQ3ntF-3" edge="1">
          <mxGeometry relative="1" as="geometry">
            <mxPoint x="641.5625" y="497.5" as="targetPoint" />
          </mxGeometry>
        </mxCell>
        <mxCell id="Y-o8OTaq_7tzzy2GkSMv-127" value="Belopp" style="ellipse;whiteSpace=wrap;html=1;strokeColor=#000000;" parent="1" vertex="1">
          <mxGeometry x="612.5" y="485" width="52.5" height="35" as="geometry" />
        </mxCell>
        <mxCell id="Y-o8OTaq_7tzzy2GkSMv-130" value="Address" style="shape=ext;double=1;rounded=0;whiteSpace=wrap;html=1;strokeColor=#000000;" parent="1" vertex="1">
          <mxGeometry x="330" y="538" width="60" height="25" as="geometry" />
        </mxCell>
        <mxCell id="Y-o8OTaq_7tzzy2GkSMv-132" value="Lag" style="shape=ext;double=1;rounded=0;whiteSpace=wrap;html=1;strokeColor=#000000;" parent="1" vertex="1">
          <mxGeometry x="925" y="260" width="40" height="22.5" as="geometry" />
        </mxCell>
        <mxCell id="LgoFQunIn0iN0EQQ3ntF-3" value="Sponsrar" style="rhombus;whiteSpace=wrap;html=1;" vertex="1" parent="1">
          <mxGeometry x="690" y="400" width="72.5" height="57.5" as="geometry" />
        </mxCell>
        <mxCell id="LgoFQunIn0iN0EQQ3ntF-6" value="N" style="endArrow=none;html=1;" edge="1" parent="1" source="Y-o8OTaq_7tzzy2GkSMv-87" target="LgoFQunIn0iN0EQQ3ntF-3">
          <mxGeometry width="50" height="50" relative="1" as="geometry">
            <mxPoint x="700" y="410" as="sourcePoint" />
            <mxPoint x="750" y="360" as="targetPoint" />
          </mxGeometry>
        </mxCell>
        <mxCell id="LgoFQunIn0iN0EQQ3ntF-7" value="M" style="endArrow=none;html=1;" edge="1" parent="1" source="LgoFQunIn0iN0EQQ3ntF-3" target="Y-o8OTaq_7tzzy2GkSMv-51">
          <mxGeometry width="50" height="50" relative="1" as="geometry">
            <mxPoint x="700" y="410" as="sourcePoint" />
            <mxPoint x="750" y="360" as="targetPoint" />
          </mxGeometry>
        </mxCell>
        <mxCell id="LgoFQunIn0iN0EQQ3ntF-9" style="edgeStyle=none;orthogonalLoop=1;jettySize=auto;html=1;endArrow=none;" edge="1" parent="1" source="LgoFQunIn0iN0EQQ3ntF-8" target="Y-o8OTaq_7tzzy2GkSMv-90">
          <mxGeometry relative="1" as="geometry" />
        </mxCell>
        <mxCell id="LgoFQunIn0iN0EQQ3ntF-8" value="Pris" style="ellipse;whiteSpace=wrap;html=1;" vertex="1" parent="1">
          <mxGeometry x="875" y="505" width="55" height="25" as="geometry" />
        </mxCell>
      </root>
    </mxGraphModel>
  </diagram>
</mxfile>
